<?xml version="1.0" encoding="utf-8" ?><svg xmlns="http://www.w3.org/2000/svg" xmlns:xlink="http://www.w3.org/1999/xlink" width="579" height="519" viewBox="0 0 579 519"><path fill="#C6C5C5" d="M394.621 156.423C398.73 157.385 402.924 155.695 407.118 156.011C409.285 156.174 416.067 156.987 417.962 157.451C418.939 157.69 419.856 158.372 420.852 158.468C422.917 158.668 425.093 158.024 427.194 158.245C431.895 158.739 436.488 160.425 441.388 160.839C443.885 161.05 446.253 160.348 448.723 160.275C451.894 160.18 460.07 161.379 463.063 162.366C464.006 162.677 464.809 163.327 465.584 163.927C468.982 163.939 472.418 164.03 475.803 163.702C480.766 163.22 485.757 162.207 490.732 162.014C496.065 161.807 501.522 162.574 506.839 162.92C509.39 163.086 512.088 162.82 514.602 163.285C515.684 163.485 517.098 163.866 517.942 164.619C518.571 165.18 518.823 165.869 518.775 166.703C518.679 168.354 517.519 169.814 517.342 171.434C517.178 172.934 517.754 174.612 517.782 176.14C517.813 177.868 517.573 179.611 517.536 181.341C517.43 186.166 517.437 191.789 518.169 196.549C516.43 200.822 513.413 204.002 509.126 205.794C506.505 206.89 495.348 209.763 494.19 211.894C493.96 212.316 493.714 212.61 493.365 212.944C492.258 213.211 491.185 213.314 490.605 214.417C489.297 216.906 489.355 218.965 487.24 221.165C487.098 222.828 486.458 225.323 486.672 226.924C486.823 228.056 488.018 228.97 487.972 230.158C487.775 235.281 483.915 237.671 485.993 243.311C485.045 246.13 485.06 248.908 484.292 251.697C483.006 256.369 481.033 261.279 479.28 265.802C477.607 270.119 475.383 274.003 473.07 277.989C471.553 280.604 470.271 283.474 468.623 285.987C465.071 291.402 460.284 296.272 455.824 300.923C454.112 302.708 452.563 304.767 450.635 306.32C447.398 308.925 443.507 310.494 440.053 312.751C437.884 314.169 435.883 316.062 433.554 317.202C430.142 318.871 425.854 319.516 422.18 320.508C419.962 321.106 417.799 322.077 415.577 322.599C413.981 322.973 412.207 322.562 410.569 322.74C404.806 323.367 402.108 325.144 395.571 324.761C392.73 324.594 389.322 323.204 387.127 323.133C386.329 323.107 385.768 323.652 385.049 323.755C384.907 323.775 370.493 319.855 369.244 319.419C366.959 318.619 364.822 317.464 362.688 316.332L362.541 316.672C360.37 321.622 356.695 326.504 353.543 330.89C352.371 332.52 350.97 334.175 350.011 335.924C349.188 337.425 348.799 339.154 348.033 340.692C346.483 343.806 344.701 346.771 343.243 349.941C341.896 352.87 340.876 355.93 339.553 358.862C338.234 361.786 336.669 364.628 335.5 367.616C334.332 370.601 333.587 373.757 332.382 376.723C330.501 381.355 327.724 385.711 326.372 390.564C325.242 394.621 325.608 398.942 324.589 403.071C322.972 409.628 319.355 414.975 321.965 421.925C322.941 424.525 324.309 426.998 324.829 429.745L323.843 432.792L324.732 435.578L324.533 436.019C322.959 439.561 322.201 443.435 320.606 446.939C317.488 453.785 308.268 461.816 301.364 464.554C300.671 464.829 300.001 464.981 299.271 465.132C298.334 465.326 297.42 465.626 296.505 465.904L296.112 465.779C292.031 464.502 287.512 465.15 283.282 465.032C273.371 464.755 266.729 457.435 261.442 449.924C260.724 448.904 259.737 448.031 259.097 446.973C257.477 444.295 256.304 435.985 255.232 432.359C255.596 431.184 256.826 428.971 256.858 427.88C256.889 426.842 255.814 426.363 256.143 425.156C256.838 422.607 259.625 419.776 259.537 417.153L258.257 415.716C258.304 409.045 255.73 404.071 253.944 397.851C252.966 394.445 252.624 390.861 251.62 387.473C249.298 379.638 245.958 372.071 243.048 364.45C242.32 362.546 242.161 360.47 241.385 358.583C239.317 353.547 236.864 348.304 234.297 343.511C233.113 341.3 231.672 339.228 230.557 336.98C229.177 334.199 229.586 331.291 227.229 328.935C226.252 327.958 224.175 326.456 224.148 324.969C224.104 322.552 224.964 322.629 223.052 320.526C221.058 318.331 218.192 316.9 216.423 314.57C207.835 321.204 199.165 321.569 189.002 322.877C185.144 323.374 182.016 324.191 178.095 323.685C175.578 323.36 173.929 323.073 171.44 323.805C164.7 321.454 157.227 321.113 150.504 318.779C143.655 316.402 136.428 312.63 130.685 308.169C128.815 306.717 127.197 304.994 125.393 303.469C123.698 302.037 121.764 300.802 120.197 299.231C118.854 297.886 117.732 296.289 116.519 294.825C112.746 290.271 110.148 287.169 106.918 282.048C105.544 279.87 103.918 277.675 102.785 275.365C102.172 274.113 101.999 273.43 102.305 272.076C102.407 271.62 102.525 271.038 102.258 270.624C101.899 270.067 101.334 269.737 100.799 269.367C99.3931 263.031 97.09 257.01 95.5346 250.736C94.8185 247.847 95.3266 244.734 93.8665 242.086C91.3735 237.565 94.1437 227.751 93.7459 222.482C93.5231 219.531 92.2535 216.64 91.6486 213.748C91.1993 211.599 93.1767 208.358 88.437 207.071C87.2893 206.759 86.2874 207.356 85.2265 207.753C82.938 207.183 80.6215 206.732 78.2864 206.402C73.5725 205.717 67.9958 205.729 65.1583 201.142C62.5596 196.942 63.6217 193.179 63.9647 188.598C63.4463 187.968 62.8901 187.347 62.4077 186.69C61.8362 181.207 60.833 174.32 64.4912 169.662C66.6158 166.957 70.3979 164.963 73.7109 164.164C75.0448 163.843 76.4614 163.781 77.7722 163.376C79.0239 162.989 80.25 161.946 81.5522 161.835C86.7156 161.395 92.811 162.926 98.1483 162.987C101.648 163.027 105.206 163.053 108.698 162.782C111.178 162.589 113.669 162.037 116.144 161.958C118.29 161.89 120.473 162.116 122.613 162.245C123.074 162.273 122.898 162.293 123.318 162.101C124.602 161.747 125.87 162.135 127.132 161.616C127.22 161.637 127.308 161.66 127.397 161.68C129.129 162.062 130.984 162.006 132.754 161.995C141.184 161.944 148.623 158.939 156.734 157.288C158.303 156.969 160.009 156.48 161.596 156.378C162.918 156.293 164.234 156.824 165.582 156.759C169.226 156.584 172.672 155.679 176.37 155.987C178.462 156.161 180.852 157.625 182.816 157.46C183.611 156.865 184.66 155.856 185.706 155.962C187.564 156.15 187.934 157.735 189.215 158.636C190.322 159.415 191.41 156.942 194.625 158.924C195.194 158.486 195.561 157.988 196.322 158.067C200.534 158.502 204.173 162.507 208.327 162.501C210.911 162.497 213.067 164.648 215.22 165.864C222.807 170.147 231.758 174.251 237.708 180.786C246.446 190.382 253.219 195.747 257.216 208.704C261.687 202.095 273.828 198.009 281.358 196.569C285.957 195.69 290.782 195.788 295.443 196.059C297.807 196.197 300.333 196.713 302.671 196.256L303.05 196.439C305.924 197.806 309.008 198.594 311.926 199.838C315.957 201.556 320.152 204.432 323.679 207.04C326.522 199.365 335.151 189.817 340.345 183.505C341.367 182.263 342.854 179.772 344.266 179.096C344.735 178.871 345.234 178.732 345.73 178.581L346.127 178.457C346.207 178.433 346.287 178.411 346.367 178.388C346.66 177.777 346.963 177.083 347.418 176.576C349.528 174.222 357.45 169.515 360.491 168.462C364.537 167.061 368.731 164.658 372.98 164.29C379.526 158.496 387.138 159.471 394.621 156.423ZM123.314 264.72C125.911 266.197 125.537 267.212 126.546 269.796C127.029 271.032 127.867 272.25 128.617 273.337C130.737 276.409 133.598 278.439 136.209 281.033C138.225 283.035 140.229 285.758 142.583 287.32C148.332 291.136 154.734 295.457 161.248 297.79C164.993 299.131 169.62 299.58 173.581 300.082C174.864 300.245 176.455 300.179 177.659 300.581C178.39 300.825 179.132 301.496 179.735 301.962C182.927 301.918 185.936 301.58 189.059 300.935C190.197 301.305 190.652 301.207 191.739 300.787C194.45 299.741 197.558 300.153 200.382 299.1C205.715 297.112 212.015 292.417 216.858 289.456C218.304 288.572 219.729 289.303 221.223 288.068C222.8 286.765 224.277 285.215 225.557 283.621C226.923 281.919 227.928 279.988 229.168 278.202C231.007 275.554 233.081 273.033 235.147 270.561C235.678 269.926 236.222 269.312 236.556 268.544C237.386 266.637 236.794 264.72 237.369 262.874C237.676 261.889 238.515 261.178 238.811 260.136C239.57 257.467 239.888 254.557 240.398 251.824C240.845 249.429 241.743 246.886 241.95 244.48C242.716 235.567 238.865 224.188 235.321 216.071C232.49 209.588 227.131 201.783 221.664 197.25C219.061 195.092 216.07 193.329 213.217 191.525C207.908 188.171 202.834 185.48 196.966 183.165C192.471 181.391 187.294 181.538 183.046 179.437C178.865 180.263 173.776 177.828 170.321 178.765C168.717 178.925 162.244 180.133 161.249 179.658C161.125 179.599 160.999 179.546 160.874 179.489C160.778 179.444 160.683 179.396 160.588 179.35C159.491 179.712 158.429 180.277 157.316 180.555C154.752 181.193 152.406 181.433 149.931 182.462C146.058 184.073 141.838 186.503 138.578 189.167C136.922 190.521 135.414 192.051 133.744 193.387C131.728 195 129.356 196.441 127.584 198.318C125.291 200.748 123.345 203.786 121.832 206.755C119.839 210.667 119.193 214.239 118.495 218.508C118.213 220.231 117.632 221.941 117.441 223.67C117.229 225.606 117.566 227.589 117.556 229.536C117.547 231.458 117.3 233.382 117.35 235.304C117.506 241.362 119.029 249.011 120.92 254.745C122.073 258.242 122.94 261.027 123.314 264.72ZM339.003 251.918C339.606 252.918 340.19 253.937 340.848 254.901C340.911 256.826 340.93 258.711 341.454 260.578C343.317 267.227 349.772 276.498 354.253 281.808C356.815 284.845 359.969 287.838 362.871 290.554C365.063 292.605 367.583 294.198 369.934 296.043L372.342 295.424C378.231 298.375 383.941 297.782 388.665 300.61C388.695 300.628 388.725 300.645 388.756 300.663C390.124 300.22 391.239 299.878 392.599 300.532C393.357 300.897 394.071 301.426 394.765 301.9C403.194 302.053 408.299 301.129 416.312 298.827C418.235 298.275 420.251 297.839 422.084 297.028C427.025 294.842 432.269 291.121 436.498 287.786C438.428 286.264 440.547 284.861 442.319 283.157C444.73 280.836 446.337 277.677 449.047 275.716C450.26 274.838 452.073 273.667 452.329 272.074C452.547 270.716 451.996 269.309 452.494 267.975C453.16 266.192 458.057 258.657 457.947 257.848C457.527 254.776 462.684 244.267 462.508 239.96C462.354 236.199 461.974 229.148 462.963 225.7C462.63 224.928 462.305 224.152 461.959 223.385C460.134 219.334 459.88 214.713 458.525 210.52C457.739 208.088 456.292 206.089 455.72 203.533C453.2 201.369 451.76 198.564 449.453 196.261C446.149 192.963 442.179 190.795 439.144 187.11C433.585 186.755 433.028 184.677 428.525 183.274C424.781 182.108 420.626 182.075 416.967 180.724C415.784 180.288 414.672 178.95 413.529 178.716C413.455 178.763 413.382 178.812 413.308 178.859C412.758 179.206 412.146 179.587 411.485 179.657C409.916 179.823 408.019 179.384 406.424 179.296C403.778 179.149 399.295 179.274 396.689 179.605C395.403 179.768 394.341 181.288 393.053 181.102C392.612 181.039 392.125 180.811 391.712 180.646C388.753 181.549 385.876 182.693 382.922 183.586C380.979 184.173 378.772 184.416 376.921 185.21C375.277 185.915 373.75 187.302 372.182 188.204C366.74 191.336 360.134 194.908 355.57 199.152C353.225 201.331 351.211 203.935 349.181 206.405C347.427 208.539 345.561 210.68 344.269 213.138C342.701 216.12 342.385 219.373 341.308 222.496C340.639 224.433 339.411 226.217 339.098 228.259C339.518 229.164 340.193 230.208 339.773 231.213C339.384 232.146 338.602 232.976 338.332 233.952C336.884 239.18 339.481 246.559 339.003 251.918ZM289.212 216.017C282.303 218.006 268.846 223.274 265.165 229.717C264.779 230.392 264.891 231.235 265.105 231.95C265.323 232.681 265.676 233.39 265.966 234.096C264.894 238.515 264.644 243.767 265.875 248.165C265.942 248.403 266 248.643 266.063 248.881C263.566 252.91 264.304 257.32 262.971 261.755C262.166 264.429 261.414 267.189 260.288 269.748C258.971 272.742 257.151 275.387 255.532 278.208C252.483 283.52 249.7 289.001 245.93 293.886C243.484 297.056 237.875 300.575 239 305.114C240.37 310.639 245.255 315.039 248.271 319.683C250.934 323.783 253.777 331.731 254.745 336.558C255.734 337.05 257.528 337.671 257.879 338.8C258.338 340.278 256.829 341.78 257.349 343.351C258.405 346.539 261.136 352.812 262.855 355.653C264.12 357.743 266.006 359.274 266.899 361.602C268.174 364.923 267.693 369.602 268.983 373.832C270.569 379.034 271.941 384.489 273.912 389.544C275.687 394.096 278.198 398.162 279.447 402.917C279.993 402.789 280.837 402.258 281.313 402.223C282.673 402.123 283.835 403.408 285.159 403.454C287.892 403.55 290.791 402.952 293.594 402.982C295.852 402.939 299.039 403.297 300.969 402.01C302.461 399.264 302.72 395.827 303.493 392.826C304.115 390.412 305.107 388.072 305.908 385.71C307.582 380.779 308.613 375.686 312.228 371.724C311.552 370.312 310.799 369.114 311.261 367.506C311.849 366.726 312.576 366.466 313.45 366.076L313.86 365.452C313.449 364.893 312.965 364.563 313.07 363.823C313.191 362.969 316.142 355.002 316.608 354.214C316.941 353.649 317.426 353.382 317.898 352.967C318.092 352.797 318.268 352.606 318.448 352.42C318.225 352.07 317.841 351.697 317.93 351.284C319.105 345.837 321.639 345.465 323.906 341.926C325.078 340.097 325.855 337.865 326.732 335.871C326.199 334.587 325.8 333.352 326.345 331.991C327.222 329.804 330.318 329.622 331.391 327.607C332.122 326.235 330.607 324.363 331.464 322.634C333.332 318.861 336.331 320.378 337.032 314.621C337.41 311.516 340.966 306.278 342.734 303.596C340.608 301.082 338.221 298.823 336.163 296.248C334.007 293.55 332.109 290.335 329.726 287.856C328.638 286.724 325.99 286.544 326.145 284.55C326.183 284.059 326.46 283.144 326.386 282.704C326.246 281.856 322.622 276.884 321.97 275.694C320.706 273.386 320.12 270.959 319.183 268.533C318.079 265.676 316.635 262.98 315.875 259.999C315.072 256.853 314.292 245.96 314.259 242.443C314.238 240.106 314.571 237.775 314.514 235.438C314.458 233.123 314.022 230.835 314 228.526C311.106 225.255 307.657 223.012 304.617 219.976C299.344 219.793 294.586 215.841 289.923 215.987C289.775 215.992 289.627 215.991 289.48 215.997C289.39 216.001 289.301 216.01 289.212 216.017Z"/><path fill="#C6C5C5" d="M181.627 212.046C188.132 211.782 197.546 210.827 203.201 214.195C208.214 217.181 213.306 222.605 214.694 228.413C215.91 233.505 214.447 237.966 213.98 242.942C213.843 244.4 214.351 246.456 213.512 247.718C212.492 249.251 210.798 250.448 209.605 251.879C205.065 257.317 205.576 259.712 197.799 261.618C195.002 262.112 192.974 261.403 190.274 261.357C188.602 261.329 186.947 261.665 185.29 261.833C184.66 261.897 184.04 261.906 183.409 261.839C181.443 261.63 179.407 260.84 177.651 259.95C172.472 257.325 167.252 252.135 165.562 246.461C164.536 243.017 164.502 232.73 165.176 229.025C165.477 227.372 166.095 225.855 166.906 224.391C170.084 218.654 175.199 213.863 181.627 212.046Z"/><path fill="#C6C5C5" d="M390.477 211.008C398.683 210.685 405.522 210.662 411.995 216.393C416.618 220.485 419.776 225.673 420.118 231.93C420.584 240.434 419.978 247 414.089 253.582C410.273 257.848 405.967 260.663 400.169 260.99C396.182 261.026 386.77 261.969 383.653 259.645C381.882 258.325 380.779 256.165 379.125 254.695C377.696 253.424 375.868 252.585 374.343 251.416C371.948 249.578 370.393 246.581 370.042 243.612C369.782 241.416 370.037 239.129 370.025 236.918C369.987 230.028 369.315 226.127 373.924 220.453C378.491 214.829 383.258 211.741 390.477 211.008Z"/><path fill="#FBFBFB" d="M93.8283 180.037C95.2632 179.991 95.9673 180.92 97.1538 181.566C97.6466 181.466 98.0899 181.4 98.593 181.394C100.321 183.08 101.358 185.515 102.957 187.369C103.03 187.454 103.106 187.537 103.181 187.622C102.478 189.256 101.592 191.408 100.154 192.503C98.9056 193.453 97.9829 193.275 96.5103 193.096C95.9519 193.609 95.4089 194.351 94.6471 194.373C92.7435 192.371 89.7186 191.066 88.4669 188.553C87.8853 187.385 87.8143 186.111 88.2714 184.888C89.1732 182.473 91.6184 181.055 93.8283 180.037Z"/><path fill="#FBFBFB" d="M486.712 180.992C487.909 180.924 489.004 180.875 490.047 181.555C492.386 183.081 493.01 186.202 493.616 188.733C491.276 191.992 490.752 193.237 486.955 195.112C484.906 194.366 481.102 190.545 480.113 188.629C480.966 186.625 481.965 184.685 483.1 182.826C483.915 181.482 485.301 181.364 486.712 180.992Z"/><path fill="#C6C5C5" d="M85.9649 7.02525C90.0708 6.90102 94.1466 7.02636 98.029 8.4894C106.248 11.5865 114.227 17.9629 121.98 22.1722C125.497 24.0815 129.366 25.4202 132.944 27.2571C144.461 33.1394 155.657 39.6322 166.483 46.708C171.562 50.0652 177.045 52.6701 182.248 55.7999C186.275 58.2224 190.159 60.8922 194.162 63.3572C201.19 67.6845 208.297 71.7372 215.528 75.7097C218.877 77.5498 222.458 80.0567 226.214 80.9238C227.6 81.2435 229.008 81.4044 230.425 81.2081C234.906 80.5874 240.043 78.7994 244.546 77.7488C249.192 76.665 254.042 76.138 258.767 75.4911C263.245 74.9062 267.73 74.3681 272.219 73.8768C274.499 73.6111 276.997 73.1182 279.285 73.1238C280.528 73.1268 281.626 73.8393 282.868 73.8867C286.649 74.0311 290.608 73.8973 294.399 73.8316C296.86 73.7889 299.377 72.9923 301.84 73.1633C303.474 73.2766 304.975 74.3823 306.591 74.5619C307.948 74.7128 309.337 73.9405 310.704 73.9911C311.946 74.037 313.16 74.6629 314.39 74.8411C316.412 75.1338 318.565 75.0137 320.618 75.2276C325.532 75.7398 330.576 76.449 335.428 77.3883C338.525 77.9881 352.978 82.4637 355.053 81.6669C359.173 80.0855 367.709 74.5346 371.837 72.0164L404.246 52.1291C408.347 49.6462 412.894 47.9417 417.005 45.4597C420.867 43.1276 424.763 40.7412 428.529 38.2618C431.59 36.2466 434.536 34.0434 437.763 32.2931C443.714 29.0658 450.02 26.4566 455.917 23.0973C457.567 22.1572 458.911 20.7301 460.55 19.76C462.896 18.371 465.573 17.5596 468.003 16.3276C474.501 13.0328 480.602 8.14173 487.795 6.40861C489.396 6.02286 491.464 7.48846 493.92 6.98821C495.086 7.86085 495.9 8.79345 496.756 9.96703C498.711 12.6463 500.435 15.5795 500.876 18.9224C501.828 26.135 500.862 36.6496 501.11 44.3446C501.261 49.0127 501.99 53.6513 502.079 58.3157C502.502 80.3991 502.08 102.564 502.096 124.656L502.105 145.141C502.105 148.952 502.416 153.144 501.813 156.908C501.241 157.389 500.29 156.902 499.573 156.74C496.206 155.979 492.943 156.082 489.52 155.878C487.254 155.743 481.773 155.357 480.23 153.623C479.59 150.071 480.048 146.03 479.871 142.397C479.653 137.924 478.843 133.497 479.023 129.008C479.166 125.451 479.874 121.94 479.928 118.374C480.013 112.778 479.084 107.155 479.068 101.532C479.049 94.9879 479.926 88.5186 479.994 82.002C480.104 71.4747 480.008 60.9361 479.996 50.4078C479.99 45.1228 479.628 39.5339 480.194 34.2924C475.877 38.3797 472.144 37.6967 467.467 40.2802C464.373 41.9893 461.72 44.5075 458.646 46.2806C453.451 49.2771 447.866 51.6526 442.667 54.6425C440.864 55.6793 439.292 57.0948 437.495 58.1433C434.947 59.6304 432.245 60.8204 429.695 62.3415C421.266 67.3708 413.038 72.7816 404.611 77.8265C402.019 79.3784 399.245 80.6353 396.679 82.2105C391.639 85.3047 387.177 89.2336 381.702 91.6418C381.24 91.8448 381.433 91.6774 381.161 92.1504C381.789 92.6228 383.01 92.3312 383.829 92.3418C387.35 94.4215 391.293 96.2018 394.629 98.524C396.138 99.5743 397.267 101.121 398.828 102.104C401.852 104.009 405.138 103.758 407.551 106.811C407.623 106.902 407.693 106.995 407.765 107.087C408.7 106.096 409.391 104.94 410.308 103.967C411.555 102.644 413.139 101.613 414.487 100.391C416.634 98.4442 417.994 96.2521 420.669 94.9352C423.886 93.3509 431.683 85.6407 434.504 85.8606C436.686 86.0308 440.058 81.3426 441.95 80.0694C445.086 77.9601 453.672 74.2652 457.387 73.4114C458.231 73.2172 459.132 72.9654 459.915 73.4497C461.048 74.954 461.211 76.928 461.372 78.7526C461.701 82.5009 461.242 86.2571 461.141 90.0082C461.005 95.0371 461.071 100.087 461.07 105.118L461.112 133.501C461.12 138.48 461.409 143.614 461.005 148.569C460.897 149.885 460.63 150.631 459.77 151.633C459.345 152.128 458.989 152.59 458.65 153.148L458.54 153.334C457.057 154.684 455.604 155.723 453.515 155.832L453.054 155.881C452.502 156.3 452.093 156.643 451.389 156.766C450.175 156.522 449.573 155.5 448.677 154.711C447.657 154.741 447.041 155.584 446.197 156.162C443.206 156.363 435.949 152.369 433.327 150.808C426.639 146.824 422.215 141.396 416.008 137.33C413.078 135.412 409.973 133.781 406.988 131.954L389.375 121.068C386.863 119.528 384.671 117.564 382.051 116.175C377.418 113.72 372.526 112.574 367.773 110.527C365.847 109.697 364.299 108.019 362.412 107.051C362.341 107.096 362.271 107.142 362.199 107.187C361.659 107.524 361.172 107.878 360.504 107.797C359.294 107.651 357.872 106.968 356.69 106.578C351.907 104.998 347.001 102.793 342.093 101.731C340.433 101.372 339.86 100.251 338.474 99.76C336.978 99.2298 335 99.954 333.39 99.6496C330.27 99.0598 327.325 97.5206 324.17 97.0581C323.49 97.3223 322.787 97.6222 322.05 97.6508C320.579 97.7077 318.629 95.8728 317.567 94.9401C315.651 95.0331 313.884 95.4593 312.045 95.9735C308.35 94.7881 304.608 93.4953 300.669 94.2011C299.359 94.4359 297.932 95.0366 296.597 94.9583C294.137 94.8141 291.711 94.1997 289.233 94.0729C285.583 93.8862 280.161 94.8943 276.505 95.5258C274.474 95.8766 272.884 94.7049 271.04 94.8745C269.424 95.0233 266.93 96.3039 265.387 97.0153C264.59 96.6562 263.678 96.1347 262.788 96.2444C258.634 96.7561 255.94 97.663 252.027 98.5013C233.701 102.321 215.95 108.507 199.22 116.903C196.372 118.357 193.725 120.182 190.916 121.704C188.78 122.861 186.446 123.705 184.382 124.983C182.49 126.155 180.748 127.604 178.82 128.709C177.224 129.623 175.385 130.103 173.8 131.044C171.479 132.423 169.628 134.555 167.415 136.101C164.845 137.897 161.897 139.194 159.253 140.9C156.682 142.559 155.305 144.61 153.15 146.659C149.459 150.169 142.935 153.704 138.077 155.15C136.456 154.745 134.964 153.876 133.317 153.584C130.437 153.073 128.176 154.223 125.224 152.64C123.395 151.659 122.326 150.365 121.703 148.404C118.668 138.843 120.245 122.974 120.006 112.542C119.927 109.073 119.157 105.546 119.312 102.09C119.48 98.372 120.771 94.7716 120.802 91.0102C120.834 87.1649 118.706 78.717 120.58 75.582C121.646 73.7995 124.193 73.2723 126.048 72.779C130.607 76.5078 133.735 77.0178 138.729 79.3648C141.223 80.5372 143.644 82.063 145.956 83.5672C150.717 86.6651 154.787 90.6098 159.423 93.8438C161.986 95.631 165.032 96.6095 167.55 98.4918C171.165 101.194 173.845 104.376 177.822 106.69C179.844 104.161 182.256 101.811 184.433 99.3981C189.527 98.1235 194.067 96.3507 197.836 92.634C195.444 90.6418 192.748 89.0926 190.118 87.4407C183.976 83.5838 177.698 80.0789 171.52 76.3111C161.754 70.2466 151.905 64.3153 141.977 58.5188C136.793 55.5363 131.429 52.8452 126.241 49.8573L109.633 40.4024C107.579 39.2564 105.521 37.8192 103.394 36.8447C102.762 36.5551 102.595 36.4829 101.903 36.5429C101.442 38.6254 102.09 41.6465 102.083 43.8281L102.09 66.3784C102.105 71.1528 102.293 76.0362 102.012 80.8007C101.708 85.9337 101.011 90.9063 101.028 96.0702C101.049 102.005 101.864 107.83 102.038 113.733C102.332 126.823 102.33 139.917 102.032 153.005C103.883 153.008 105.587 153.156 107.412 153.469C102.068 154.943 91.2738 155.749 86.0214 154.687C85.1872 154.518 83.9082 154.169 83.1439 154.557C82.6091 156.378 83.3746 158.312 82.9128 160.173L82.4576 160.417C81.8614 158.89 82.2789 156.419 82.0087 154.707C81.3179 150.329 80.486 146.089 80.1337 141.649C79.6257 135.248 79.9823 128.595 79.9813 122.159L80.0011 88.8798C80.0325 85.4735 80.5926 82.0627 80.516 78.6688C80.4611 76.2357 80.1547 73.8136 80.0911 71.3791C79.9771 67.0176 80.1371 62.6434 79.8994 58.2857C79.6945 54.5267 79.202 50.779 79.0525 47.018C78.8176 41.1086 78.9875 35.1293 78.9925 29.2135C78.9963 24.6276 78.505 19.3259 79.2537 14.8225C79.7377 11.9111 83.6411 8.68823 85.9649 7.02525Z"/><path fill="#FBFBFB" d="M453.515 155.832C453.508 155.515 453.519 155.224 453.683 154.938C454.202 154.033 455.563 153.264 456.559 153.04C457.468 152.835 457.756 152.861 458.54 153.334C457.057 154.684 455.604 155.723 453.515 155.832Z"/><path fill="#C6C5C5" d="M505.035 221.572L505.086 222.114C505.589 222.844 507.408 221.543 508.54 222.226C510.815 223.601 524.6 246.297 527.334 250.215C532.748 257.971 538.306 265.751 543.96 273.334C547.319 277.84 551.079 282.231 554.2 286.889C555.643 289.043 557.39 291.703 557.959 294.267C558.343 296.001 558.574 299.132 557.583 300.704C557.205 302.2 553.841 303.832 552.513 304.496C545.205 308.149 537.447 310.748 529.996 314.083C519.03 318.992 508.374 324.846 497.878 330.681C491.263 334.359 484.506 337.88 478.261 342.173C470.477 347.524 460.972 354.162 454.001 360.476C451.456 362.782 449.509 365.752 446.965 368.052C444.82 369.992 442.1 371.294 440.076 373.376C436.615 376.935 433.761 381.17 430.626 385.028C424.801 392.198 418.588 399.326 413.47 407.024C409.756 412.61 406.775 418.382 403.725 424.323C403.136 425.47 402.252 426.424 401.431 427.41C398.566 430.846 398.416 432.608 397.625 436.897C397.252 436.951 396.852 436.989 396.488 437.086C396.463 437.093 395.765 437.305 395.679 437.362C394.404 438.206 389.656 447.963 388.632 449.837C377.487 470.226 359.68 490.268 338.833 500.91C334.577 503.083 329.984 504.534 325.49 506.12C322.051 507.334 318.6 508.703 315.095 509.71C308.854 511.503 297.5 512.93 291.064 512.912C284.525 512.894 274.312 511.542 267.882 510.072C246.778 505.377 227.7 494.126 213.38 477.929C210.392 474.573 207.802 470.95 205.078 467.386C201.274 462.411 197.474 457.731 194.193 452.371C192.26 449.213 190.931 445.78 189.154 442.544C185.284 435.5 181.137 428.482 176.995 421.595C172.061 413.39 166.21 405.457 160.642 397.659C154.791 389.466 147.621 382.193 140.605 375.013C138.108 372.458 135.721 369.763 133.125 367.312C130.713 365.034 128.09 362.981 125.649 360.733C123.477 358.732 121.618 356.404 119.413 354.44C116.665 351.992 113.091 351.022 110.101 348.922C96.4937 339.362 80.3911 329.77 65.2165 322.995L38.2882 310.944C34.6073 309.29 30.7978 308.118 27.2596 306.128C22.6696 303.546 21.0327 300.74 19.63 295.748C20.289 293.001 21.2811 290.807 22.8496 288.459C25.1689 284.986 28.234 282.239 30.8342 279.015C36.8732 271.525 42.4889 263.783 48.0602 255.944C52.5554 249.566 56.9295 242.838 61.7969 236.752C63.5845 234.517 65.68 232.532 67.5267 230.345C69.7959 227.658 72.3053 223.418 75.7039 222.133C76.5661 221.806 77.5068 221.751 78.3445 222.179C80.7397 223.401 84.6938 233.363 85.6029 236.154C86.0181 237.429 86.0955 238.2 85.6355 239.452C84.4194 242.763 81.4638 245.701 79.5279 248.644C74.265 256.645 69.3732 264.835 63.8399 272.671C61.9495 275.348 60.1134 278.346 57.9849 280.831C56.6175 282.427 54.7437 283.746 53.6036 285.508C52.8016 286.747 52.2544 288.322 51.576 289.661C56.8557 292.944 62.5381 295.825 68.0919 298.619C73.952 301.567 80.7307 303.605 85.242 308.542C90.5244 309.635 94.9542 313.044 99.4142 315.839C101.611 317.216 103.969 318.335 106.136 319.759C108.508 321.317 110.718 323.117 113.112 324.647C116.239 326.646 119.64 328.292 122.665 330.442C124.723 331.906 126.373 333.941 128.464 335.342C130.035 336.396 131.875 337.042 133.411 338.154C134.501 338.944 133.943 340.321 134.96 341.13C135.672 341.081 136.555 340.985 137.246 341.214C138.445 341.611 141.016 345.497 142.401 346.558C144.682 348.306 147.09 349.915 149.148 351.935C151.224 353.974 152.99 356.323 155.018 358.412C157.179 360.637 159.735 362.462 161.854 364.729C163.57 366.564 164.862 368.717 166.425 370.671C169.381 374.367 172.576 377.901 175.552 381.605C180.251 387.457 185.326 393.471 189.309 399.833C191.462 403.271 192.435 407.298 194.506 410.669C196.058 413.197 198.713 414.905 200.239 417.496C203.306 422.706 205.217 428.548 208.016 433.891C210.696 439.007 214.214 443.907 217.602 448.575C219.893 451.731 221.962 455.111 224.376 458.168C229.077 464.119 235.069 469.585 240.855 474.488C243.469 476.703 246.654 478.219 249.58 479.978C252.947 482.003 255.925 484.364 259.636 485.782C263.248 487.162 267.227 487.614 271.003 488.421C273.58 488.972 276.179 489.783 278.79 490.138C282.107 490.588 291.582 490.983 294.798 490.702C297.485 490.467 300.144 489.85 302.816 489.485C308.477 488.711 314.638 488.46 319.977 486.228C322.864 485.021 325.409 483.054 328.237 481.719C330.975 480.426 334.033 479.765 336.69 478.308C344.493 474.029 353.263 463.666 359 456.84C360.654 454.871 361.002 452.378 362.372 450.28C363.613 448.382 365.122 446.67 366.341 444.749C368.031 442.088 369.445 439.266 371.196 436.637C372.72 434.35 374.708 432.219 375.979 429.785C376.466 428.853 376.254 427.999 376.192 426.996C375.998 423.833 378.215 422.928 380.128 420.969C381.223 419.848 382.073 418.455 382.886 417.124C385.662 412.573 388.059 407.743 390.928 403.269C401.112 387.699 412.699 373.094 425.546 359.636C427.137 357.948 427.961 355.582 429.563 354.056C430.626 353.043 432.21 352.726 433.358 351.73C435.841 349.576 438.168 347.272 440.699 345.162C442.944 343.291 445.561 341.536 447.634 339.496C448.96 338.192 449.733 336.368 451.023 335.028C454.579 331.332 459.831 329.395 463.934 326.438C465.968 324.972 467.634 322.812 469.807 321.559C471.165 320.775 472.88 320.859 474.241 320.033C477.078 318.311 479.699 316.037 482.522 314.231C485.5 312.325 488.87 310.762 491.738 308.753C493.105 307.796 494.156 306.381 495.618 305.56C496.965 304.804 497.578 306.101 498.786 305.709C501.974 304.676 503.231 301.119 506.91 300.946C507.024 300.94 507.139 300.938 507.254 300.934C508.773 299.917 510.012 298.503 511.603 297.596C513.138 296.72 515.008 296.207 516.638 295.509C519.272 294.381 521.819 293.056 524.459 291.937C525.621 291.444 526.966 291.131 528.056 290.504C528.599 290.191 528.918 289.85 529.189 289.279C528.019 286.657 524.666 284.339 522.885 282.02C517.076 274.326 511.527 266.439 506.245 258.374C504.555 255.778 503.312 252.925 501.578 250.345C498.729 246.108 495.041 243.585 493.262 238.548C493.644 237.158 493.731 235.615 494.189 234.266C496.002 228.919 501.5 226.143 504.758 221.933L505.035 221.572Z"/><path fill="#C6C5C5" d="M450.337 376.032C454.6 376.082 458.836 376.257 463.106 376.203C471.573 376.094 480.056 375.715 488.525 376.017C492.329 376.153 496.018 377.505 499.774 377.617C501.884 377.679 504.088 377.27 506.195 377.106C510.203 376.795 519.187 376.262 522.821 377.504C524.937 378.228 526.517 379.969 527.413 381.977C528.353 384.082 528.569 386.698 527.648 388.848C526.641 391.203 524.367 393.854 521.972 394.828C521.03 394.977 520.019 394.95 519.064 394.99C507.017 394.987 494.916 394.751 482.874 395.035C479.041 395.126 475.272 395.733 471.453 395.934C466.941 396.171 462.13 396.368 457.623 396.137C455.668 396.037 453.725 395.731 451.771 395.621C449.634 395.5 447.334 395.778 445.251 395.275C443.859 393.071 443.127 389.721 442.129 387.219C442.64 385.502 443.117 383.461 443.905 381.866C445.166 379.31 447.607 376.905 450.337 376.032Z"/><path fill="#C6C5C5" d="M71.7141 378.057C80.4542 377.83 89.3899 377.666 98.1263 377.956C103.642 378.14 109.055 378.958 114.606 378.991C118.624 379.015 122.693 379.041 126.703 378.767C129.602 378.568 132.448 378.08 135.361 377.949C140.713 382.65 139.582 384.681 140.776 390.969C139.089 393.309 137.46 395.971 135.385 397.977C133.217 398.06 131.131 397.935 128.981 397.65C122.834 396.264 115.638 397.061 109.337 396.978C105.282 396.924 101.288 396.253 97.2429 396.092C90.0234 395.805 82.7174 396.039 75.4897 396.051C72.8357 396.056 64.57 396.577 62.5274 395.697C60.617 394.875 58.9385 390.093 58.1403 388.236C58.5572 385.853 58.9019 383.719 60.5012 381.787C63.1829 378.547 67.8512 378.368 71.7141 378.057Z"/><path fill="#C6C5C5" d="M98.7656 411.995C102.684 411.919 106.622 411.839 110.539 412C113.808 412.134 117.034 412.511 120.314 412.508C128.31 412.502 136.213 411.856 144.217 412.098C145.335 412.898 146.429 413.668 147.319 414.73C149.175 416.945 150.36 419.696 149.979 422.63C149.507 426.264 146.99 428.583 144.305 430.748C139.897 431.475 134.949 431.051 130.473 431.026C117.17 431.017 103.807 431.343 90.5128 431.026C87.1321 430.945 83.0619 430.749 80.6467 428.078C78.2033 425.376 77.9296 422.21 78.0318 418.748C79.573 416.891 81.0775 415.005 82.5446 413.089L98.7656 411.995Z"/><path fill="#C6C5C5" d="M465.544 410.798C468.078 410.275 471.438 410.868 474.069 410.912C481.395 411.034 488.65 410.97 495.973 411.392C499.794 411.612 501.387 412.596 503.9 415.437C504.091 416.803 504.579 418.095 504.7 419.477C504.927 422.079 504.369 425.024 502.565 426.993C500.493 429.255 495.606 430.142 492.609 429.779C491.142 429.601 489.651 429.043 488.167 429.147C483.804 429.455 479.531 430.138 475.143 430.297C469.033 431.498 462.589 430.981 456.387 431.02C452.106 431.047 447.611 431.365 443.362 430.887C441.735 430.704 440.107 430.321 438.662 429.527C436.966 428.596 435.703 427.141 435.193 425.258C434.536 422.832 435.075 419.388 436.41 417.228C437.451 415.544 439.587 412.949 441.493 412.3C443.419 411.644 447.139 412.176 449.279 412.131C454.784 412.014 460.143 411.998 465.544 410.798Z"/><path fill="#FBFBFB" d="M119.725 155.608L122.484 153.344C123.942 156.153 124.696 159.483 127.132 161.616C125.87 162.135 124.602 161.747 123.318 162.101C122.632 159.354 121.549 157.727 119.725 155.608Z"/></svg>