<?xml version="1.0" encoding="utf-8"?>
<!DOCTYPE svg PUBLIC "-//W3C//DTD SVG 1.0//EN" "http://www.w3.org/TR/2001/REC-SVG-20010904/DTD/svg10.dtd">
<svg version="1.0" xmlns="http://www.w3.org/2000/svg" width="579px" height="519px" viewBox="0 0 579 519" preserveAspectRatio="xMidYMid meet">
 <g fill="#1e1e1e">
  <path d="M279 510.4 c-22.3 -3.8 -34.9 -8.9 -49.6 -19.9 -4 -3 -7.4 -5.1 -7.8 -4.8 -0.3 0.3 -1 -0.6 -1.6 -2.1 -0.5 -1.5 -1.6 -2.9 -2.5 -3.2 -1.7 -0.7 -18.5 -21.1 -18.5 -22.5 0 -0.5 -0.7 -0.9 -1.5 -0.9 -0.9 0 -1.5 -0.9 -1.5 -2.3 0 -1.2 -0.9 -2.8 -2 -3.5 -1.1 -0.7 -2 -2.1 -2 -3.1 0 -2.5 -4.7 -12.6 -6.5 -14.1 -0.8 -0.7 -1.5 -1.8 -1.5 -2.5 0 -0.6 -0.9 -2 -2 -3 -1.1 -1 -1.7 -2.2 -1.4 -2.6 0.7 -1.2 -8.5 -15.3 -19.5 -29.9 -14.8 -19.8 -42.2 -44.7 -62.3 -56.5 -15.2 -9 -25.7 -14.5 -27.5 -14.5 -0.7 0 -1.3 -0.4 -1.3 -0.9 0 -0.9 -11.5 -6 -18.5 -8.2 -2.2 -0.7 -4.4 -1.6 -5 -2 -3.5 -2.4 -8.8 -4.9 -10.5 -4.9 -2.4 0 -10 -4 -12.7 -6.7 -1.7 -1.7 -1.9 -2.8 -1.4 -5.9 0.9 -4.9 3.2 -9.3 6.1 -11.9 3.6 -3.2 11.8 -13.8 24.4 -31.5 17.8 -25 21.1 -29 23.9 -29 1.1 0 2.7 2.2 4.7 6.3 1.7 3.5 3 7 3 7.7 0 2.5 -32.1 48.9 -35.4 51.2 -0.6 0.4 -0.8 0.9 -0.6 1.1 0.3 0.3 9.3 4.9 20 10.4 40.9 20.7 68.9 40.5 91.2 64.2 15 16 34.8 44.5 46.5 67 13.4 25.6 27.9 42 45.2 51 21 10.9 50.7 12.1 72.8 2.9 20.9 -8.6 38.5 -27.2 52.5 -55.3 29.2 -58.3 77.8 -104.3 140.6 -133 8.1 -3.7 14.8 -6.9 15 -7 0.2 -0.2 -1.2 -2 -3 -4.2 -1.9 -2.1 -5.5 -6.7 -7.9 -10.3 -2.5 -3.6 -6.3 -9 -8.5 -12 -11.1 -15.8 -17.4 -25.6 -17.4 -27 0 -0.8 1.3 -3.1 2.8 -5 1.6 -1.9 3.8 -5.2 5.1 -7.2 l2.3 -3.8 1.9 2.3 c1 1.2 3.5 4.7 5.5 7.7 2.1 3 4 5.7 4.4 6 0.3 0.3 0.9 1.3 1.3 2.2 0.3 1 1.3 1.8 2.2 1.8 0.8 0 1.4 0.3 1.3 0.8 -0.5 1.6 3.3 9.2 5.2 10.4 1.1 0.7 2 2 2 2.9 0 0.8 1.1 2.6 2.5 3.9 1.4 1.3 2.5 2.8 2.5 3.3 0 0.5 1.7 3.1 3.8 5.7 6.9 9 16.7 22.3 18.3 24.9 3.2 5.3 0 8.6 -13.7 14.3 -15.4 6.3 -45.1 21.1 -53.4 26.6 -1.4 0.9 -4.1 2.5 -6 3.6 -1.9 1 -5.3 3.4 -7.6 5.2 -2.3 1.9 -4.5 3.4 -5 3.4 -0.5 0 -2.2 1.2 -3.9 2.6 -1.6 1.5 -4.6 3.7 -6.5 4.9 -12.8 8.3 -52 53.5 -52 59.9 0 0.8 -0.9 3.1 -2 5.1 -1.1 2 -2 4.2 -2 5.1 0 0.8 -0.7 1.7 -1.5 2 -1.7 0.7 -4.5 6.1 -4.8 9.3 -0.1 1.1 -0.6 2.1 -1.3 2.1 -1.2 0 -6.4 7.3 -6.4 9 0 0.6 -1.3 3.1 -3 5.5 -1.6 2.4 -3 4.8 -3 5.2 0 0.5 -2.7 3.8 -6 7.3 -3.3 3.6 -6 7 -6 7.7 0 1.5 -19.9 20.3 -21.5 20.3 -0.7 0 -2 0.9 -3 2 -1 1.1 -2.3 2 -2.9 2 -0.6 0 -2.8 1.1 -4.8 2.5 -2 1.4 -4.3 2.5 -5.1 2.5 -0.8 0 -2 0.7 -2.7 1.5 -0.7 0.8 -2.5 1.5 -4.1 1.5 -1.6 0 -2.9 0.4 -2.9 0.9 0 0.5 -1 1.1 -2.2 1.4 -13.3 3.2 -18 3.9 -28.8 4.2 -6.9 0.2 -13.6 0.2 -15 -0.1z"/>
  <path d="M281.9 463.7 c-6.4 -1.4 -11.1 -4.7 -16.2 -10.9 -7.9 -9.8 -9.9 -20.1 -6.1 -30.8 1.7 -4.6 1.6 -4.7 -2.5 -20.9 -7.1 -27.6 -20.8 -61 -32.5 -79.1 -6.1 -9.4 -6.1 -9.4 -13.1 -6 -17.5 8.4 -46 7.7 -66.4 -1.6 -12.7 -5.7 -26.1 -17.7 -34.6 -30.8 -11.6 -17.9 -14.9 -28.1 -15.9 -49.6 -0.6 -11.5 -1.1 -15.4 -2.7 -18.7 -2.4 -5 -6.2 -8.3 -9.6 -8.3 -1.3 0 -2.2 -0.4 -1.8 -0.9 0.3 -0.5 -2 -1.3 -5 -1.6 -6.7 -0.9 -10 -4.2 -11.1 -11 -1 -7.1 -0.1 -26.2 1.4 -27.7 1 -1 8.5 -1.5 29.5 -1.9 15.5 -0.3 28.3 -0.7 28.4 -0.8 0.1 0 0 -0.8 -0.3 -1.6 -0.7 -1.7 2.1 -2.1 3.1 -0.5 1 1.6 10.9 1.1 24 -1 20.1 -3.3 38.2 -2.6 52 2.2 13.5 4.7 29.4 14.7 38.1 24 6.2 6.7 14.4 18.7 14.4 21.1 0 2.7 1.3 2.6 4.8 -0.5 5 -4.3 14.9 -8.8 22.7 -10.1 12.6 -2.1 26.6 1.5 36.5 9.4 2.2 1.8 4.1 3 4.2 2.8 0.2 -0.2 1.2 -2.2 2.3 -4.4 3.1 -6.2 12.8 -17.9 19.4 -23.4 11.5 -9.5 28.8 -17.9 44.6 -21.7 8 -1.8 23 -1.8 33.5 0.2 16.4 3.1 18 3.3 26.6 3.3 5.5 0 9.2 0.5 10.2 1.3 2.7 2.3 40 1.4 40.9 -1 0.4 -0.8 1 -0.9 1.7 -0.3 0.6 0.4 3.7 1.1 6.9 1.3 3.2 0.3 6.2 0.9 6.8 1.5 0.6 0.6 1 7.4 1 16.2 0.1 14.7 0 15.4 -2.3 17.8 -3.1 3.3 -7 5.3 -10.6 5.3 -1.6 0 -3.6 0.7 -4.3 1.6 -0.7 0.9 -2.3 2 -3.6 2.5 -1.3 0.5 -2.3 1.5 -2.3 2.3 0 0.7 -0.9 1.6 -1.9 1.9 -3.8 0.9 -5.2 5.1 -6.7 19.7 -1.2 11.1 -2.3 16.6 -5.3 25.6 -2.1 6.2 -4.8 12.8 -6 14.6 -1.1 1.8 -3 5.1 -4.2 7.3 -3.4 6.2 -15.5 20.2 -21.8 25.1 -20.6 16.1 -51.2 21.4 -75.2 12.9 -4.1 -1.4 -8.1 -2.8 -8.9 -3.1 -3 -1 -18.6 23.8 -23.5 37.1 -1 2.8 -2.2 5.5 -2.6 6.1 -2.7 3.4 -11.5 28.1 -14.9 41.5 -3.8 15.3 -3.8 15.8 -2.3 20 0.9 2.4 1.6 7.6 1.7 11.4 0.1 5.9 -0.4 8 -3.1 13.6 -7.4 15.2 -21.5 22.2 -37.4 18.6z m20.3 -60.5 c0.3 -0.4 2.3 -6.3 4.3 -13.2 3.6 -12.3 4.3 -14.4 10.3 -30.5 3.6 -10 13.1 -29.4 21.6 -44.4 l6.5 -11.5 -7 -7 c-5.9 -5.8 -8 -8.9 -12.4 -18 -7.5 -15.5 -9.5 -23.3 -9.5 -37.8 l0 -11.7 -4.9 -5 c-6.1 -6.2 -13 -8.6 -23 -7.8 -8.2 0.6 -14.7 3.4 -20.5 8.7 l-4.5 4.1 0.6 8.7 c0.8 12 -1.5 23 -7.4 35.7 -4.4 9.2 -12.8 21.9 -17.4 26.1 -1 0.9 -1.9 2.3 -1.9 3 0 0.7 1.9 4.5 4.3 8.6 9.4 16 23.1 47.9 29.2 68.3 3.5 11.6 7.3 23.4 7.9 24.3 0.5 0.9 22.9 0.3 23.8 -0.6z m-101.4 -103.6 c26.5 -8.9 42.3 -30.9 42.2 -58.7 -0.1 -31.1 -24.9 -57.1 -60 -62.8 -20.3 -3.3 -36.4 1.3 -51.3 14.6 -12.2 11 -16 20.6 -16 40.8 0 10.6 2.7 22.2 7.9 33.4 4.5 9.8 17.7 23.2 27.4 27.8 6.9 3.3 18.2 6.9 24 7.6 7.1 1 18.6 -0.2 25.8 -2.7z m211.4 1.8 c30.3 -7.8 51.9 -36 51.9 -67.9 0.1 -15.9 -4.5 -29 -12.8 -37.2 -17.2 -16.7 -41.5 -22.7 -64.6 -15.9 -23.6 7 -40.4 21.1 -46.4 38.9 -2.4 7.3 -2.7 9.7 -2.7 21.2 0 11.5 0.3 13.8 2.6 20.3 7.2 20 24.8 36.2 43.8 40 3 0.7 6.4 1.4 7.5 1.6 4.9 0.9 15.2 0.5 20.7 -1z m-313.2 -115.5 c-1.6 -2.8 -4.9 -3.4 -7.2 -1.2 -1.9 1.9 -1.9 2 0.8 4.6 l2.7 2.7 2.3 -2.1 c1.8 -1.7 2.1 -2.6 1.4 -4z m390.6 -0.8 c-2.5 -2.4 -2.6 -2.4 -4.6 -0.6 -2.6 2.3 -2.5 4 0.2 5.9 2 1.5 2.4 1.4 4.5 -0.6 l2.4 -2.2 -2.5 -2.5z"/>
  <path d="M184.7 258.6 c-7.1 -2.6 -11.4 -6.2 -14.1 -12 -4.4 -9.3 -3 -18 4.2 -25.2 11.6 -11.6 31.4 -6.6 35.9 9.1 3.4 11.7 1.8 17.9 -6 23.6 -7.1 5.2 -13.8 6.7 -20 4.5z"/>
  <path d="M386.2 257.1 c-4.6 -1.2 -8.6 -5.3 -11.2 -11.4 -8.1 -18.7 10 -37.6 28.3 -29.8 5.6 2.4 9.4 6.2 11.8 11.8 2.6 6.1 2.4 11.4 -0.7 17.9 -3.7 7.8 -9.4 11.6 -18.3 12 -3.6 0.2 -8.1 -0.1 -9.9 -0.5z"/>
  <path d="M438.6 427.4 c-3.1 -3.2 -3.6 -4.4 -3.1 -6.9 1.2 -6.7 5.7 -7.5 40.3 -7.5 25.8 0 27.2 0.4 27.2 7.1 0 7.3 -3.7 8.5 -30 9.4 -4.7 0.2 -13.5 0.6 -19.6 1 l-11 0.7 -3.8 -3.8z"/>
  <path d="M85.8 429.1 c-2.7 -0.8 -6.8 -5.6 -6.8 -7.8 0 -1.3 1.1 -3.6 2.5 -5.1 l2.5 -2.7 30.1 0 30.1 0 1.9 2.4 c2.4 3 2.4 8.2 0 11.2 l-1.9 2.4 -28.6 0 c-15.7 0 -29.1 -0.2 -29.8 -0.4z"/>
  <path d="M65 394.2 c-3.3 -0.5 -6 -3.5 -6 -6.6 0 -3.1 4.6 -8.7 6.6 -7.9 0.8 0.3 2.1 0 3 -0.7 1.2 -1 5.8 -1.1 21.7 -0.4 11.1 0.4 24.5 0.7 29.7 0.6 11.8 -0.4 15.7 0.3 17.1 3 1.7 3.1 1.3 8.7 -0.7 10.9 -1.8 2 -2.8 2.1 -35.4 1.7 -18.4 -0.1 -34.6 -0.5 -36 -0.6z"/>
  <path d="M453.2 394.1 c-7.6 -1 -9.7 -2.7 -9.7 -8.1 0 -7.5 -0.1 -7.5 31.6 -7.6 15.4 -0.1 28.3 -0.5 28.6 -0.8 1 -1 12.5 -0.7 16.6 0.5 6.4 1.8 8.3 9.7 3.3 13.9 -1.3 1 -6.3 1.4 -20.9 1.5 -10.6 0.2 -24.6 0.5 -31.2 0.8 -6.6 0.3 -14.8 0.2 -18.3 -0.2z"/>
  <path d="M439.6 152.6 c-2.6 -1.7 -8.4 -5.8 -12.9 -9.1 -15.1 -11.3 -33.2 -22.5 -47.2 -29.5 -44 -21.7 -94 -26.6 -141.3 -13.9 -24.4 6.5 -56.2 22.4 -78.2 39 -7.8 5.9 -17.4 12.2 -20 13.1 -0.8 0.3 -5.1 0 -9.5 -0.6 l-8 -1.1 -0.8 -19 c-0.4 -10.4 -0.6 -27.5 -0.5 -38 l0.3 -19 2.7 0.2 c4.8 0.3 34.1 18.7 47.2 29.6 3.3 2.8 5.2 3.7 6.1 3.1 0.7 -0.5 2.9 -2.2 5 -3.8 2 -1.6 7.3 -4.9 11.7 -7.2 7.8 -4 8 -4.2 5.7 -5.4 -1.3 -0.7 -6.9 -4.1 -12.4 -7.5 -28 -17.2 -49.6 -29.7 -82.7 -47.8 -2.1 -1.1 -4 -1.8 -4.4 -1.5 -1.1 1.2 -0.7 118 0.5 118.7 0.6 0.4 -3.1 0.5 -8.2 0.3 -5 -0.2 -9.6 -0.8 -10.2 -1.3 -0.6 -0.6 -1.1 -26.2 -1.4 -69.4 l-0.3 -68.5 3.3 -3.1 c2.9 -2.7 3.8 -3 7.4 -2.4 5.2 0.8 16.4 6.1 25.1 11.9 3.8 2.6 8 5 9.4 5.3 1.4 0.3 3.2 1.1 4 1.8 0.8 0.7 5.6 3.4 10.5 6 5 2.6 12.6 6.9 17 9.4 4.4 2.6 9.2 5.3 10.7 6.1 1.5 0.8 10 6.2 19 12 20.3 13 37.3 21.8 41.4 21.5 3.3 -0.3 6.5 -0.9 16.4 -3 12.9 -2.7 32.3 -4.7 45.5 -4.7 19.8 0 50.6 4.1 57.6 7.7 4.4 2.3 7.4 1.8 11.9 -2 2.3 -1.9 4.8 -3.5 5.6 -3.5 0.8 0 1.4 -0.4 1.4 -0.8 0 -0.4 1.5 -1.5 3.3 -2.4 8.6 -4.1 12.5 -6.3 16.2 -8.8 2.2 -1.5 8 -5.2 12.9 -8.1 4.8 -3 10 -6.2 11.5 -7.1 1.4 -0.9 5.3 -3.1 8.6 -4.9 3.3 -1.7 10.3 -5.7 15.5 -8.9 17.5 -10.6 51.5 -28 54.8 -28 1.8 0 4.2 1 5.8 2.3 3.8 3.3 4.2 8.6 4.3 69.8 0.1 29 0.4 56.5 0.7 61.2 0.4 4.7 0.4 9.7 0 11.1 -0.6 2.5 -1 2.6 -7.1 2.6 -3.5 0 -6.7 -0.5 -7.1 -1.1 -0.3 -0.6 -1.4 -0.9 -2.4 -0.6 -1.1 0.3 -2.1 -0.1 -2.4 -0.8 -0.3 -0.8 -0.5 -27.8 -0.6 -60.1 0 -32.3 -0.2 -58.9 -0.4 -59.1 -0.4 -0.5 -13.3 5.8 -23.1 11.2 -17.3 9.5 -67.9 39.8 -74.5 44.6 l-4.3 3.1 3.2 1.4 c3.9 1.6 22 12.1 24.2 14 1.3 1.2 2.2 0.7 6.5 -3.7 2.7 -2.8 8.5 -7.7 12.9 -10.8 10.2 -7.3 29.7 -19.1 31.7 -19.1 2.4 0 2.8 6.3 2.8 42.9 0 24.9 -0.3 34 -1.2 34.9 -0.7 0.7 -0.8 1.2 -0.2 1.2 0.5 0.1 -0.2 0.7 -1.5 1.4 -1.9 1 -3.2 1.1 -5.4 0.3 -2.1 -0.7 -3.5 -0.7 -4.8 0.2 -1 0.6 -2 1.1 -2.1 1 -0.2 -0.1 -2.5 -1.5 -5.2 -3.3z"/>
 </g>
 <g fill="#ffffff">
  <path d="M364 479.5 c4.1 -4.4 7.7 -7.9 8 -7.7 0.2 0.1 -3.2 3.7 -7.5 8 l-7.9 7.7 7.4 -8z"/>
  <path d="M207.6 469.4 c-4.7 -5.8 -8.6 -11 -8.6 -11.5 0 -0.5 -0.7 -0.9 -1.5 -0.9 -0.9 0 -1.5 -0.9 -1.5 -2.3 0 -1.2 -0.8 -2.7 -1.9 -3.4 -1 -0.6 -2.1 -2.7 -2.3 -4.5 -0.4 -2.7 -0.3 -3 0.6 -1.5 5.7 9.5 15.3 23.3 19.5 28 4.8 5.5 5.7 6.7 4.7 6.7 -0.2 0 -4.3 -4.8 -9 -10.6z"/>
  <path d="M380.7 458.5 c3.3 -4.9 8.8 -14.4 12.3 -21 6.7 -12.6 15 -25.8 15 -23.8 0 0.7 -0.9 2.8 -2 4.8 -1.1 2 -2 4.2 -2 5.1 0 0.8 -0.7 1.7 -1.5 2 -1.7 0.7 -4.5 6.1 -4.8 9.3 -0.1 1.1 -0.6 2.1 -1.3 2.1 -1.2 0 -6.4 7.3 -6.4 9 0 0.6 -1.3 3.1 -3 5.5 -1.6 2.4 -3 4.8 -3 5.2 0 0.5 -2.1 3.1 -4.7 5.9 l-4.6 4.9 6 -9z"/>
  <path d="M288.8 464.3 c1.2 -0.2 3.2 -0.2 4.5 0 1.2 0.2 0.2 0.4 -2.3 0.4 -2.5 0 -3.5 -0.2 -2.2 -0.4z"/>
  <path d="M268.5 455.8 l-4 -4.3 4.3 4 c3.9 3.6 4.7 4.5 3.9 4.5 -0.2 0 -2.1 -1.9 -4.2 -4.2z"/>
  <path d="M322.3 432 c0 -2.5 0.2 -3.5 0.4 -2.2 0.2 1.2 0.2 3.2 0 4.5 -0.2 1.2 -0.4 0.2 -0.4 -2.3z"/>
  <path d="M441.1 430.1 c-0.9 -0.6 2.3 -0.7 8.5 -0.4 5.4 0.3 10.1 0.7 10.3 0.9 1 0.9 -17.5 0.3 -18.8 -0.5z"/>
  <path d="M181.5 428 c-1 -1.1 -1.3 -2 -0.7 -2 0.6 0 1.6 0.9 2.2 2 0.6 1.1 0.9 2 0.7 2 -0.2 0 -1.2 -0.9 -2.2 -2z"/>
  <path d="M474.8 429.3 c1.2 -0.2 3.2 -0.2 4.5 0 1.2 0.2 0.2 0.4 -2.3 0.4 -2.5 0 -3.5 -0.2 -2.2 -0.4z"/>
  <path d="M435.5 424 c-0.8 -1.3 0.3 -6.8 1.5 -7.5 0.5 -0.3 0.4 0.8 -0.1 2.5 -0.6 1.7 -0.8 3.7 -0.5 4.5 0.6 1.7 0 2 -0.9 0.5z"/>
  <path d="M79.2 421 c0 -1.9 0.2 -2.7 0.5 -1.7 0.2 0.9 0.2 2.5 0 3.5 -0.3 0.9 -0.5 0.1 -0.5 -1.8z"/>
  <path d="M461.7 394.3 c1.8 -0.2 5 -0.2 7 0 2.1 0.2 0.7 0.4 -3.2 0.4 -3.8 0 -5.5 -0.2 -3.8 -0.4z"/>
  <path d="M120.3 379.3 c0.9 -0.2 2.5 -0.2 3.5 0 0.9 0.3 0.1 0.5 -1.8 0.5 -1.9 0 -2.7 -0.2 -1.7 -0.5z"/>
  <path d="M75.2 378.3 c3.7 -0.2 10 -0.2 14 0 4 0.1 1 0.3 -6.7 0.3 -7.7 0 -11 -0.1 -7.3 -0.3z"/>
  <path d="M465.3 378.3 c5.9 -0.2 15.5 -0.2 21.5 0 5.9 0.1 1 0.3 -10.8 0.3 -11.8 0 -16.7 -0.2 -10.7 -0.3z"/>
  <path d="M507.3 377.3 c2 -0.2 5.4 -0.2 7.5 0 2 0.2 0.3 0.4 -3.8 0.4 -4.1 0 -5.8 -0.2 -3.7 -0.4z"/>
  <path d="M153.5 359.8 l-9 -9.3 9.3 9 c5 4.9 9.2 9.1 9.2 9.2 0 0.8 -1.2 -0.4 -9.5 -8.9z"/>
  <path d="M395.3 322.3 c1.5 -0.2 3.9 -0.2 5.5 0 1.5 0.2 0.2 0.4 -2.8 0.4 -3 0 -4.3 -0.2 -2.7 -0.4z"/>
  <path d="M209.1 316.6 c1 -0.9 6.9 -3.6 6.9 -3.2 0 0.6 -5.5 3.6 -6.6 3.6 -0.4 0 -0.5 -0.2 -0.3 -0.4z"/>
  <path d="M29.4 306.6 c-4.6 -2.6 -8.9 -6.5 -8 -7.4 0.4 -0.3 1.4 0.5 2.3 1.7 0.8 1.3 4.3 3.6 7.7 5.2 3.3 1.6 5.2 2.9 4.1 2.8 -1.1 0 -3.8 -1.1 -6.1 -2.3z"/>
  <path d="M135.4 283.8 l-2.9 -3.3 3.3 2.9 c1.7 1.7 3.2 3.1 3.2 3.3 0 0.8 -0.8 0.1 -3.6 -2.9z"/>
  <path d="M521 244.1 c-1.3 -2.5 -1.3 -3.1 0.2 -3.1 0.6 0 0.8 0.3 0.5 0.6 -0.3 0.4 -0.2 1.5 0.4 2.5 0.5 1.1 0.7 1.9 0.5 1.9 -0.3 0 -1 -0.9 -1.6 -1.9z"/>
  <path d="M464.3 238.5 c0 -2.2 0.2 -3 0.4 -1.7 0.2 1.2 0.2 3 0 4 -0.3 0.9 -0.5 -0.1 -0.4 -2.3z"/>
  <path d="M316.1 232.6 c0 -1.6 -0.9 -3.9 -1.8 -5 -1.7 -2.1 -1.7 -2.1 0.6 0 1.6 1.5 2.1 2.9 1.8 5 l-0.4 2.9 -0.2 -2.9z"/>
  <path d="M488 215.8 c0 -0.2 1.4 -1.7 3 -3.3 2.3 -2.2 3 -2.5 3 -1.2 0 0.9 -0.5 1.7 -1.2 1.7 -0.6 0 -2 0.7 -3 1.7 -1 0.9 -1.8 1.4 -1.8 1.1z"/>
  <path d="M285.7 196.3 c1.8 -0.2 5 -0.2 7 0 2.1 0.2 0.7 0.4 -3.2 0.4 -3.8 0 -5.5 -0.2 -3.8 -0.4z"/>
  <path d="M483.8 194.4 c-5.1 -2.7 -6.2 -7.4 -2.7 -11.8 1.6 -2 2.9 -2.6 5.8 -2.6 7.8 0 10.9 8.4 5 13.4 -3.5 3 -4.4 3.1 -8.1 1z"/>
  <path d="M89.6 192.4 c-3.6 -3.6 -3.6 -8.5 0 -11.3 3.8 -3 7.7 -2.7 11.3 1 3.8 3.7 3.9 5.8 0.5 9.8 -3.4 4.1 -8 4.2 -11.8 0.5z"/>
  <path d="M515.8 175.1 c-0.2 -5.5 0.1 -9.7 0.5 -9.2 0.9 0.9 1.2 17.9 0.4 18.8 -0.3 0.3 -0.7 -4 -0.9 -9.6z"/>
  <path d="M122.5 159.4 c-2 -4.9 -0.7 -6.6 1.7 -2 1 2 2.9 4.1 4.1 4.6 2 0.8 1.9 0.9 -1 0.9 -2.8 0.1 -3.5 -0.4 -4.8 -3.5z"/>
  <path d="M451.5 154.6 l-3 -1.3 4.4 -0.7 c5 -0.8 7.4 0.5 3.8 2.1 -1.6 0.8 -3.1 0.7 -5.2 -0.1z"/>
  <path d="M99.2 130.8 l0.3 -23.3 0.2 22.7 0.3 22.7 2.8 0.4 c2.5 0.4 2.4 0.4 -0.5 0.6 l-3.3 0.1 0.2 -23.2z"/>
  <path d="M481.4 135.5 c0 -8.8 0.2 -12.3 0.3 -7.7 0.2 4.6 0.2 11.8 0 16 -0.1 4.2 -0.3 0.5 -0.3 -8.3z"/>
  <path d="M121.4 99.5 c0 -13.7 0.2 -19.5 0.3 -12.8 0.2 6.7 0.2 17.9 0 25 -0.1 7 -0.3 1.6 -0.3 -12.2z"/>
  <path d="M99.4 67.5 c0 -11.5 0.2 -16.1 0.3 -10.2 0.2 5.9 0.2 15.4 0 21 -0.1 5.6 -0.3 0.8 -0.3 -10.8z"/>
  <path d="M459.3 83.5 c0 -2.2 0.2 -3 0.4 -1.7 0.2 1.2 0.2 3 0 4 -0.3 0.9 -0.5 -0.1 -0.4 -2.3z"/>
  <path d="M222.3 81.9 c-1.8 -1.2 -3.3 -2.3 -3.3 -2.6 0 -0.2 1.5 0.4 3.3 1.5 2.1 1.4 4.5 1.9 7.2 1.7 2.9 -0.2 3.4 -0.1 2 0.5 -3.3 1.4 -5.8 1.1 -9.2 -1.1z"/>
  <path d="M361.9 79.1 c1.3 -1.2 2.8 -2.1 3.5 -2.1 1.2 0 -0.5 1.4 -3.9 3.1 -1.6 0.8 -1.5 0.6 0.4 -1z"/>
  <path d="M168.5 49.9 c-1.6 -1 -2.5 -1.9 -1.9 -1.9 0.7 0 2.2 0.9 3.5 2 3 2.4 2.3 2.4 -1.6 -0.1z"/>
  <path d="M413.9 48.1 c1.3 -1.2 2.8 -2.1 3.4 -2.1 1.2 0 1.1 0 -2.8 2.4 l-3 1.7 2.4 -2z"/>
  <path d="M108.8 16.4 c-3.8 -2 -3.6 -2.8 0.2 -0.9 1.7 0.9 3 1.8 3 2 0 0.7 -0.1 0.6 -3.2 -1.1z"/>
 </g>
</svg>